<svg width="24" height="24" viewBox="0 0 24 24" fill="none" xmlns="http://www.w3.org/2000/svg">
<path d="M18.4525 12.72C18.4825 12.48 18.4925 12.25 18.4925 12C18.4925 11.75 18.4725 11.52 18.4525 11.28L19.8625 10.04C20.4025 9.56999 20.5225 8.78999 20.1725 8.16999L19.4025 6.82999C19.0425 6.20999 18.3025 5.92999 17.6225 6.15999L16.2825 6.60999C16.0025 6.70999 15.6925 6.64999 15.4425 6.48999C15.3125 6.40999 15.1725 6.32999 15.0325 6.24999C14.7625 6.10999 14.5725 5.86999 14.5125 5.56999L14.2325 4.18999C14.0925 3.48999 13.4825 2.98999 12.7625 2.98999H11.2125C10.5025 2.98999 9.88251 3.48999 9.74251 4.18999L9.46251 5.56999C9.40251 5.86999 9.20251 6.10999 8.94251 6.24999C8.80251 6.32999 8.66251 6.40999 8.53251 6.48999C8.28251 6.64999 7.97251 6.69999 7.69251 6.60999L6.35251 6.15999C5.67251 5.92999 4.93251 6.20999 4.57251 6.82999L3.81251 8.16999C3.45251 8.78999 3.58251 9.56999 4.12251 10.04L5.53251 11.28C5.50251 11.52 5.49251 11.75 5.49251 12C5.49251 12.25 5.51251 12.48 5.53251 12.72L4.12251 13.96C3.58251 14.43 3.46251 15.21 3.81251 15.83L4.58251 17.17C4.94251 17.79 5.68251 18.07 6.36251 17.84L7.70251 17.39C7.98251 17.29 8.29251 17.35 8.54251 17.51C8.67251 17.59 8.81251 17.67 8.95251 17.75C9.22251 17.89 9.41251 18.13 9.47251 18.43L9.75251 19.81C9.89251 20.51 10.5025 21.01 11.2225 21.01H12.7725C13.4825 21.01 14.1025 20.51 14.2425 19.81L14.5225 18.43C14.5825 18.13 14.7825 17.89 15.0425 17.75C15.1825 17.67 15.3225 17.59 15.4525 17.51C15.7025 17.35 16.0125 17.3 16.2925 17.39L17.6325 17.84C18.3125 18.07 19.0525 17.79 19.4125 17.17L20.1825 15.83C20.5425 15.21 20.4125 14.43 19.8725 13.96L18.4625 12.72H18.4525ZM11.9925 15.5C10.0625 15.5 8.49251 13.93 8.49251 12C8.49251 10.07 10.0625 8.49999 11.9925 8.49999C13.9225 8.49999 15.4925 10.07 15.4925 12C15.4925 13.93 13.9225 15.5 11.9925 15.5Z" fill="#8487B0"/>
</svg>
