<svg width="52" height="48" viewBox="0 0 52 48" fill="none" xmlns="http://www.w3.org/2000/svg">
<g clip-path="url(#clip0_4406_78636)">
<path d="M24.5918 0.855662C28.2215 3.22776 27.4371 9.34461 25.9095 12.782C25.0628 14.6577 23.673 16.3426 21.8264 17.2428C18.0049 19.1033 14.7732 14.5067 14.3392 11.1561C13.9551 8.11595 15.095 5.02352 16.9114 2.5503C18.3813 0.546639 21.1075 -0.579511 23.5095 0.305384C23.8901 0.446965 24.2532 0.63159 24.5918 0.855662Z" fill="#44A500"/>
<path d="M1.48445 13.9486C3.1262 11.2351 6.74525 9.94746 9.3974 12.1395C12.2642 14.5084 12.7641 19.1552 11.6961 22.5159C10.7686 25.4652 7.70259 28.7092 4.34241 27.3197C1.49739 26.1459 0.0594167 22.3656 0.00022591 19.4925C-0.0123504 17.5447 0.50038 15.6296 1.48445 13.9486Z" fill="#44A500"/>
<path d="M38.7102 5.32442C39.3248 5.62948 39.8672 6.06199 40.3014 6.59314C42.3819 9.12581 42.5672 12.5211 41.4336 15.5083C40.5641 17.7901 37.7738 22.4229 34.781 21.8258C31.7881 21.2286 30.5994 17.7568 30.2624 15.1135C29.8401 11.8537 30.6197 8.37318 33.1593 6.1073C33.9017 5.43949 34.8265 5.00829 35.8153 4.86884C36.8041 4.72938 37.8121 4.888 38.7102 5.32442Z" fill="#44A500"/>
<path d="M22.2029 20.2495C22.9766 20.1466 23.7596 20.1327 24.5365 20.2083C28.0041 20.546 31.1118 22.582 33.5979 25.0322C36.0839 27.4825 38.0862 30.3703 40.4038 32.9798C41.3487 34.0452 42.3501 35.0727 43.1186 36.2725C45.5862 40.1241 43.7102 45.422 39.6027 47.2685C34.1384 49.7293 29.171 45.105 23.7465 46.1532C20.0148 46.8828 16.4456 48.4809 12.5627 47.8161C11.6229 47.6232 10.7396 47.2186 9.97965 46.633C8.03156 45.2208 6.55599 42.9878 6.54923 40.5801C6.53379 35.7708 11.2799 32.3694 12.9827 28.1831C13.5622 26.7594 14.2348 25.3805 15.2099 24.1549C16.9562 22.0073 19.4584 20.6099 22.2029 20.2495Z" fill="#44A500"/>
<path d="M51.3374 23.7107C51.5433 24.8143 51.5535 25.9456 51.3675 27.0527C50.8464 30.0807 47.5868 31.2624 44.8557 30.4863C41.1122 29.4208 39.8605 25.105 41.2991 21.7022C42.1582 19.6806 44.3559 17.9125 46.6503 18.1806C48.0595 18.3446 49.2961 19.2918 50.0691 20.4775C50.7022 21.4604 51.1333 22.5595 51.3374 23.7107Z" fill="#44A500"/>
</g>
<defs>
<clipPath id="clip0_4406_78636">
<rect width="51.4998" height="48" fill="white"/>
</clipPath>
</defs>
</svg>
